<?xml version="1.0" encoding="UTF-8" standalone="no"?>
<!-- Created with Inkscape (http://www.inkscape.org/) -->

<svg
   width="32"
   height="32"
   viewBox="0 0 32 32"
   version="1.1"
   id="svg1"
   inkscape:version="1.4.2 (f4327f4, 2025-05-13)"
   sodipodi:docname="development7777_logo_clip.svg"
   inkscape:export-filename="development7777_logo-clip.png"
   inkscape:export-xdpi="3072"
   inkscape:export-ydpi="3072"
   xmlns:inkscape="http://www.inkscape.org/namespaces/inkscape"
   xmlns:sodipodi="http://sodipodi.sourceforge.net/DTD/sodipodi-0.dtd"
   xmlns="http://www.w3.org/2000/svg"
   xmlns:svg="http://www.w3.org/2000/svg">
  <sodipodi:namedview
     id="namedview1"
     pagecolor="#ffffff"
     bordercolor="#000000"
     borderopacity="0.25"
     inkscape:showpageshadow="2"
     inkscape:pageopacity="0.0"
     inkscape:pagecheckerboard="0"
     inkscape:deskcolor="#d1d1d1"
     inkscape:document-units="px"
     inkscape:zoom="16"
     inkscape:cx="12.65625"
     inkscape:cy="16.71875"
     inkscape:window-width="1440"
     inkscape:window-height="890"
     inkscape:window-x="-6"
     inkscape:window-y="-6"
     inkscape:window-maximized="1"
     inkscape:current-layer="layer1"
     inkscape:export-bgcolor="#ffffffff" />
  <defs
     id="defs1">
    <inkscape:path-effect
       effect="fillet_chamfer"
       id="path-effect5"
       is_visible="true"
       lpeversion="1"
       nodesatellites_param="F,0,0,1,0,0,0,1 @ F,0,0,1,0,0,0,1 @ F,0,0,1,0,0,0,1 @ F,0,0,1,0,0,0,1"
       radius="0"
       unit="px"
       method="auto"
       mode="F"
       chamfer_steps="1"
       flexible="false"
       use_knot_distance="true"
       apply_no_radius="true"
       apply_with_radius="true"
       only_selected="false"
       hide_knots="false" />
    <inkscape:path-effect
       effect="fillet_chamfer"
       id="path-effect4"
       is_visible="true"
       lpeversion="1"
       nodesatellites_param="F,0,0,1,0,0,0,1 @ F,0,0,1,0,0,0,1 @ F,0,0,1,0,0,0,1 @ F,0,0,1,0,0,0,1"
       radius="0"
       unit="px"
       method="auto"
       mode="F"
       chamfer_steps="1"
       flexible="false"
       use_knot_distance="true"
       apply_no_radius="true"
       apply_with_radius="true"
       only_selected="false"
       hide_knots="false" />
    <inkscape:path-effect
       effect="fillet_chamfer"
       id="path-effect3"
       is_visible="true"
       lpeversion="1"
       nodesatellites_param="F,0,0,1,0,0,0,1 @ F,0,0,1,0,0,0,1 @ F,0,0,1,0,0,0,1 @ F,0,0,1,0,0,0,1"
       radius="0"
       unit="px"
       method="auto"
       mode="F"
       chamfer_steps="1"
       flexible="false"
       use_knot_distance="true"
       apply_no_radius="true"
       apply_with_radius="true"
       only_selected="false"
       hide_knots="false" />
    <inkscape:path-effect
       effect="fillet_chamfer"
       id="path-effect2"
       is_visible="true"
       lpeversion="1"
       nodesatellites_param="F,0,0,1,0,0,0,1 @ F,0,0,1,0,0,0,1 @ F,0,0,1,0,0,0,1 @ F,0,0,1,0,0,0,1"
       radius="0"
       unit="px"
       method="auto"
       mode="F"
       chamfer_steps="1"
       flexible="false"
       use_knot_distance="true"
       apply_no_radius="true"
       apply_with_radius="true"
       only_selected="false"
       hide_knots="false" />
    <clipPath
       clipPathUnits="userSpaceOnUse"
       id="clipPath2">
      <path
         id="path3"
         style="fill:#d16500;fill-opacity:0.253776;stroke-width:0.784487"
         d="M 15.696346,0.0190141 C 11.791972,0.1022471 8.11499,1.6269901 5.5733862,3.858008 1.8090091,7.093874 0.0983786,11.485321 4.7440105e-4,15.764742 -0.0325776,20.190749 1.6599861,24.7673 5.5356679,28.128732 c 2.5486151,2.244404 6.2360711,3.786679 10.1606781,3.868829 4.054466,0.07166 7.977637,-1.44153 10.630873,-3.751993 C 29.776225,25.349507 31.542597,21.44949 31.920783,17.58161 32.383134,12.912788 30.832493,8.022919 26.982208,4.324273 24.457666,1.9663724 20.777863,0.1885623 16.726365,0.0499127 16.382602,0.0338363 16.040029,-0.0319269 15.696346,0.0190141 Z" />
    </clipPath>
    <clipPath
       clipPathUnits="userSpaceOnUse"
       id="clipPath3">
      <path
         id="path4"
         style="fill:#d16500;fill-opacity:0.253776;stroke-width:0.784487"
         d="M 15.696346,0.0190141 C 11.791972,0.1022471 8.11499,1.6269901 5.5733862,3.858008 1.8090091,7.093874 0.0983786,11.485321 4.7440105e-4,15.764742 -0.0325776,20.190749 1.6599861,24.7673 5.5356679,28.128732 c 2.5486151,2.244404 6.2360711,3.786679 10.1606781,3.868829 4.054466,0.07166 7.977637,-1.44153 10.630873,-3.751993 C 29.776225,25.349507 31.542597,21.44949 31.920783,17.58161 32.383134,12.912788 30.832493,8.022919 26.982208,4.324273 24.457666,1.9663724 20.777863,0.1885623 16.726365,0.0499127 16.382602,0.0338363 16.040029,-0.0319269 15.696346,0.0190141 Z" />
    </clipPath>
    <clipPath
       clipPathUnits="userSpaceOnUse"
       id="clipPath4">
      <path
         id="path5"
         style="fill:#d16500;fill-opacity:0.253776;stroke-width:0.784487"
         d="M 15.696346,0.0190141 C 11.791972,0.1022471 8.11499,1.6269901 5.5733862,3.858008 1.8090091,7.093874 0.0983786,11.485321 4.7440105e-4,15.764742 -0.0325776,20.190749 1.6599861,24.7673 5.5356679,28.128732 c 2.5486151,2.244404 6.2360711,3.786679 10.1606781,3.868829 4.054466,0.07166 7.977637,-1.44153 10.630873,-3.751993 C 29.776225,25.349507 31.542597,21.44949 31.920783,17.58161 32.383134,12.912788 30.832493,8.022919 26.982208,4.324273 24.457666,1.9663724 20.777863,0.1885623 16.726365,0.0499127 16.382602,0.0338363 16.040029,-0.0319269 15.696346,0.0190141 Z" />
    </clipPath>
    <clipPath
       clipPathUnits="userSpaceOnUse"
       id="clipPath5">
      <path
         id="path6"
         style="fill:#d16500;fill-opacity:0.253776;stroke-width:0.784487"
         d="M 15.696346,0.0190141 C 11.791972,0.1022471 8.11499,1.6269901 5.5733862,3.858008 1.8090091,7.093874 0.0983786,11.485321 4.7440105e-4,15.764742 -0.0325776,20.190749 1.6599861,24.7673 5.5356679,28.128732 c 2.5486151,2.244404 6.2360711,3.786679 10.1606781,3.868829 4.054466,0.07166 7.977637,-1.44153 10.630873,-3.751993 C 29.776225,25.349507 31.542597,21.44949 31.920783,17.58161 32.383134,12.912788 30.832493,8.022919 26.982208,4.324273 24.457666,1.9663724 20.777863,0.1885623 16.726365,0.0499127 16.382602,0.0338363 16.040029,-0.0319269 15.696346,0.0190141 Z" />
    </clipPath>
    <clipPath
       clipPathUnits="userSpaceOnUse"
       id="clipPath6">
      <path
         id="path7"
         style="fill:#d16500;fill-opacity:0.253776;stroke-width:0.784628"
         d="M 14.837499,-4.7384779 C 11.175654,-3.4759496 8.2022006,-0.9080582 6.5335599,1.9891005 4.0396285,6.214785 3.8658587,10.919784 5.1791306,15.029263 c 1.422703,4.229575 4.5253689,8.079743 9.2916684,10.109901 3.145431,1.367386 7.13629,1.720279 10.871581,0.609288 3.854547,-1.160343 7.064415,-3.791826 8.812438,-6.798553 2.307567,-3.806159 2.69544,-8.059542 1.782193,-11.8616131 -1.096829,-4.5911585 -4.168319,-8.7830383 -9.021395,-11.142377 -3.159968,-1.4828834 -7.220968,-2.0626449 -11.094717,-0.9670654 -0.330098,0.088847 -0.675393,0.1299643 -0.9834,0.2826786 z" />
    </clipPath>
    <clipPath
       clipPathUnits="userSpaceOnUse"
       id="clipPath7">
      <path
         id="path8"
         style="fill:#d16500;fill-opacity:0.253776;stroke-width:0.784537"
         d="M 14.941136,-5.05367 C 11.25171,-3.7133431 8.2226635,-1.0821076 6.4914899,1.8507597 3.9063438,6.1298022 3.6313054,10.839007 4.8562911,14.92109 c 1.3318448,4.199871 4.352006,7.984666 9.0751529,9.913966 3.11636,1.30083 7.100073,1.569127 10.859692,0.378796 3.87995,-1.242218 7.146807,-3.942065 8.95973,-6.986196 2.389733,-3.855519 2.86918,-8.117599 2.037648,-11.9007226 -0.998153,-4.5684057 -3.97978,-8.6956107 -8.78263,-10.9522886 -3.128413,-1.4160321 -7.177394,-1.9097339 -11.075154,-0.7318802 -0.332047,0.095858 -0.678266,0.1443022 -0.989594,0.3035654 z" />
    </clipPath>
    <clipPath
       clipPathUnits="userSpaceOnUse"
       id="clipPath8">
      <path
         id="path9"
         style="fill:#d16500;fill-opacity:0.253776;stroke-width:0.784628"
         d="M 14.837499,-4.7384779 C 11.175654,-3.4759496 8.2022006,-0.9080582 6.5335599,1.9891005 4.0396285,6.214785 3.8658587,10.919784 5.1791306,15.029263 c 1.422703,4.229575 4.5253689,8.079743 9.2916684,10.109901 3.145431,1.367386 7.13629,1.720279 10.871581,0.609288 3.854547,-1.160343 7.064415,-3.791826 8.812438,-6.798553 2.307567,-3.806159 2.69544,-8.059542 1.782193,-11.8616131 -1.096829,-4.5911585 -4.168319,-8.7830383 -9.021395,-11.142377 -3.159968,-1.4828834 -7.220968,-2.0626449 -11.094717,-0.9670654 -0.330098,0.088847 -0.675393,0.1299643 -0.9834,0.2826786 z" />
    </clipPath>
    <clipPath
       clipPathUnits="userSpaceOnUse"
       id="clipPath9">
      <path
         id="path10"
         style="fill:#d16500;fill-opacity:0.253776;stroke-width:0.784487"
         d="M 15.696346,0.0190141 C 11.791972,0.1022471 8.11499,1.6269901 5.5733862,3.858008 1.8090091,7.093874 0.0983786,11.485321 4.7440105e-4,15.764742 -0.0325776,20.190749 1.6599861,24.7673 5.5356679,28.128732 c 2.5486151,2.244404 6.2360711,3.786679 10.1606781,3.868829 4.054466,0.07166 7.977637,-1.44153 10.630873,-3.751993 C 29.776225,25.349507 31.542597,21.44949 31.920783,17.58161 32.383134,12.912788 30.832493,8.022919 26.982208,4.324273 24.457666,1.9663724 20.777863,0.1885623 16.726365,0.0499127 16.382602,0.0338363 16.040029,-0.0319269 15.696346,0.0190141 Z" />
    </clipPath>
  </defs>
  <g
     inkscape:label="Main"
     inkscape:groupmode="layer"
     id="layer1">
    <circle
       style="fill:#4f6d7a;stroke-width:0.566929;fill-opacity:1"
       id="path1"
       cx="16"
       cy="16"
       r="16"
       inkscape:label="Backgrounds"
       clip-path="url(#clipPath9)" />
    <rect
       style="fill:#f7be81;fill-opacity:1;stroke-width:0.248099"
       id="rect2-5"
       width="8.5378952"
       height="6.4145117"
       x="28.505695"
       y="3.0911667"
       inkscape:label="V"
       sodipodi:type="rect"
       transform="matrix(0.95301281,0.30293001,-0.3283796,0.94454584,0,0)"
       clip-path="url(#clipPath8)" />
    <rect
       style="fill:#a3b18a;fill-opacity:1;stroke-width:0.617184"
       id="rect2-8"
       width="13.749529"
       height="19.896294"
       x="14.560834"
       y="8.8929815"
       inkscape:label="E"
       sodipodi:type="rect"
       transform="matrix(0.94637492,0.32307044,-0.30798003,0.95139282,0,0)"
       clip-path="url(#clipPath7)" />
    <rect
       style="fill:#f7be81;fill-opacity:1;stroke-width:0.248099"
       id="rect2"
       width="7.9445853"
       height="7.6646471"
       x="6.8130894"
       y="1.540838"
       inkscape:label="D"
       sodipodi:type="rect"
       transform="matrix(0.95301281,0.30293001,-0.3283796,0.94454584,0,0)"
       clip-path="url(#clipPath6)" />
    <path
       d="m 28.556641,17.5 h 0.91797 l 1.233724,-3.450522 h -0.735677 l -0.927735,2.864584 h -0.05859 l -0.927735,-2.864584 h -0.735677 z"
       id="text3"
       style="font-size:6.66667px;font-family:'Cascadia Code PL';-inkscape-font-specification:'Cascadia Code PL';fill:#e85a4f;stroke-width:0.566929"
       inkscape:label="v"
       aria-label="v"
       clip-path="url(#clipPath5)" />
    <path
       d="m 15.880197,25.755208 c 0.520832,0 1.197914,-0.02604 2.018224,-0.182291 l -0.16927,-1.210935 c -0.572916,0.117188 -1.119789,0.182292 -1.692704,0.182292 -1.386716,0 -2.259109,-0.605468 -2.499994,-1.757808 h 4.661446 c 0.02604,-0.273437 0.03906,-0.559895 0.03906,-0.885415 0,-2.148432 -1.067706,-3.307283 -2.92968,-3.307283 -1.979162,0 -3.111972,1.315101 -3.111972,3.567699 0,2.317703 1.328122,3.593741 3.684887,3.593741 z M 13.48437,21.731781 c 0.110676,-1.230466 0.768227,-1.927079 1.835933,-1.927079 1.041664,0 1.666662,0.690103 1.666662,1.927079 z"
       id="text2"
       style="font-size:13.3333px;font-family:'Cascadia Code PL';-inkscape-font-specification:'Cascadia Code PL';fill:#e85a4f;stroke-width:0.566929"
       inkscape:label="e"
       aria-label="e"
       clip-path="url(#clipPath4)" />
    <path
       d="m 8.1523438,11.203125 c 0.6367187,0 1.046875,-0.308594 1.0976562,-0.828125 h 0.082031 L 9.4140625,11.164063 10.15625,11.125 V 5.265625 H 9.328125 v 2.46875 H 9.25 C 9.1835938,7.2148437 8.7734375,6.90625 8.1523438,6.90625 7.0664062,6.90625 6.5,7.65625 6.5,9.09375 c 0,1.386719 0.5664062,2.109375 1.6523438,2.109375 z M 9.328125,9.1953125 C 9.328125,10.050781 8.9882813,10.5 8.3359375,10.5 c -0.6679688,0 -1.015625,-0.480469 -1.015625,-1.40625 0,-0.9765625 0.3476562,-1.484375 1.015625,-1.484375 0.6523438,0 0.9921875,0.4492188 0.9921875,1.3046875 z"
       id="text1"
       style="font-size:8px;font-family:'Cascadia Code PL';-inkscape-font-specification:'Cascadia Code PL';fill:#e85a4f;stroke-width:0.566929"
       inkscape:label="d"
       aria-label="d"
       clip-path="url(#clipPath3)" />
    <text
       xml:space="preserve"
       style="font-style:normal;font-variant:normal;font-weight:normal;font-stretch:normal;font-size:5.33333px;font-family:'Cascadia Code PL';-inkscape-font-specification:'Cascadia Code PL';text-align:start;writing-mode:lr-tb;direction:ltr;text-anchor:start;fill:#ffffff;fill-opacity:1;stroke-width:0.566929"
       x="15.0625"
       y="9.6875"
       id="text4"
       clip-path="url(#clipPath2)"><tspan
         sodipodi:role="line"
         id="tspan4"
         x="15.0625"
         y="9.6875"
         style="font-size:5.33333px;fill:#ffffff;fill-opacity:1">7777</tspan></text>
  </g>
</svg>
